%TF.GenerationSoftware,KiCad,Pcbnew,8.0.3*%
%TF.CreationDate,2024-07-16T14:46:07-05:00*%
%TF.ProjectId,kryptonite,6b727970-746f-46e6-9974-652e6b696361,rev?*%
%TF.SameCoordinates,PX813b7f0PY6643331*%
%TF.FileFunction,Copper,L1,Top*%
%TF.FilePolarity,Positive*%
%FSLAX46Y46*%
G04 Gerber Fmt 4.6, Leading zero omitted, Abs format (unit mm)*
G04 Created by KiCad (PCBNEW 8.0.3) date 2024-07-16 14:46:07*
%MOMM*%
%LPD*%
G01*
G04 APERTURE LIST*
G04 Aperture macros list*
%AMRoundRect*
0 Rectangle with rounded corners*
0 $1 Rounding radius*
0 $2 $3 $4 $5 $6 $7 $8 $9 X,Y pos of 4 corners*
0 Add a 4 corners polygon primitive as box body*
4,1,4,$2,$3,$4,$5,$6,$7,$8,$9,$2,$3,0*
0 Add four circle primitives for the rounded corners*
1,1,$1+$1,$2,$3*
1,1,$1+$1,$4,$5*
1,1,$1+$1,$6,$7*
1,1,$1+$1,$8,$9*
0 Add four rect primitives between the rounded corners*
20,1,$1+$1,$2,$3,$4,$5,0*
20,1,$1+$1,$4,$5,$6,$7,0*
20,1,$1+$1,$6,$7,$8,$9,0*
20,1,$1+$1,$8,$9,$2,$3,0*%
G04 Aperture macros list end*
%TA.AperFunction,SMDPad,CuDef*%
%ADD10RoundRect,0.062500X-0.375000X-0.062500X0.375000X-0.062500X0.375000X0.062500X-0.375000X0.062500X0*%
%TD*%
%TA.AperFunction,SMDPad,CuDef*%
%ADD11RoundRect,0.062500X-0.062500X-0.375000X0.062500X-0.375000X0.062500X0.375000X-0.062500X0.375000X0*%
%TD*%
%TA.AperFunction,HeatsinkPad*%
%ADD12R,5.600000X5.600000*%
%TD*%
%TA.AperFunction,SMDPad,CuDef*%
%ADD13RoundRect,0.225000X0.250000X-0.225000X0.250000X0.225000X-0.250000X0.225000X-0.250000X-0.225000X0*%
%TD*%
%TA.AperFunction,SMDPad,CuDef*%
%ADD14RoundRect,0.140000X0.140000X0.170000X-0.140000X0.170000X-0.140000X-0.170000X0.140000X-0.170000X0*%
%TD*%
%TA.AperFunction,SMDPad,CuDef*%
%ADD15RoundRect,0.140000X0.170000X-0.140000X0.170000X0.140000X-0.170000X0.140000X-0.170000X-0.140000X0*%
%TD*%
%TA.AperFunction,SMDPad,CuDef*%
%ADD16RoundRect,0.135000X-0.185000X0.135000X-0.185000X-0.135000X0.185000X-0.135000X0.185000X0.135000X0*%
%TD*%
%TA.AperFunction,SMDPad,CuDef*%
%ADD17R,1.200000X1.400000*%
%TD*%
%TA.AperFunction,SMDPad,CuDef*%
%ADD18RoundRect,0.140000X-0.170000X0.140000X-0.170000X-0.140000X0.170000X-0.140000X0.170000X0.140000X0*%
%TD*%
%TA.AperFunction,SMDPad,CuDef*%
%ADD19RoundRect,0.135000X-0.135000X-0.185000X0.135000X-0.185000X0.135000X0.185000X-0.135000X0.185000X0*%
%TD*%
%TA.AperFunction,SMDPad,CuDef*%
%ADD20RoundRect,0.135000X0.135000X0.185000X-0.135000X0.185000X-0.135000X-0.185000X0.135000X-0.185000X0*%
%TD*%
%TA.AperFunction,SMDPad,CuDef*%
%ADD21RoundRect,0.140000X-0.140000X-0.170000X0.140000X-0.170000X0.140000X0.170000X-0.140000X0.170000X0*%
%TD*%
%TA.AperFunction,SMDPad,CuDef*%
%ADD22R,0.750000X0.300000*%
%TD*%
%TA.AperFunction,SMDPad,CuDef*%
%ADD23R,1.300000X1.500000*%
%TD*%
%TA.AperFunction,SMDPad,CuDef*%
%ADD24RoundRect,0.225000X-0.250000X0.225000X-0.250000X-0.225000X0.250000X-0.225000X0.250000X0.225000X0*%
%TD*%
%TA.AperFunction,SMDPad,CuDef*%
%ADD25RoundRect,0.112000X0.238000X-0.238000X0.238000X0.238000X-0.238000X0.238000X-0.238000X-0.238000X0*%
%TD*%
%TA.AperFunction,SMDPad,CuDef*%
%ADD26RoundRect,0.055000X0.595000X-0.055000X0.595000X0.055000X-0.595000X0.055000X-0.595000X-0.055000X0*%
%TD*%
%TA.AperFunction,SMDPad,CuDef*%
%ADD27RoundRect,0.062500X0.587500X-0.062500X0.587500X0.062500X-0.587500X0.062500X-0.587500X-0.062500X0*%
%TD*%
%TA.AperFunction,SMDPad,CuDef*%
%ADD28RoundRect,0.150000X-0.587500X-0.150000X0.587500X-0.150000X0.587500X0.150000X-0.587500X0.150000X0*%
%TD*%
%TA.AperFunction,ComponentPad*%
%ADD29R,1.700000X1.700000*%
%TD*%
%TA.AperFunction,ComponentPad*%
%ADD30O,1.700000X1.700000*%
%TD*%
%TA.AperFunction,SMDPad,CuDef*%
%ADD31RoundRect,0.150000X0.512500X0.150000X-0.512500X0.150000X-0.512500X-0.150000X0.512500X-0.150000X0*%
%TD*%
%TA.AperFunction,SMDPad,CuDef*%
%ADD32RoundRect,0.225000X-0.225000X-0.250000X0.225000X-0.250000X0.225000X0.250000X-0.225000X0.250000X0*%
%TD*%
%TA.AperFunction,ViaPad*%
%ADD33C,0.700000*%
%TD*%
%TA.AperFunction,ViaPad*%
%ADD34C,0.600000*%
%TD*%
%TA.AperFunction,Conductor*%
%ADD35C,0.200000*%
%TD*%
%TA.AperFunction,Conductor*%
%ADD36C,0.500000*%
%TD*%
%TA.AperFunction,Conductor*%
%ADD37C,0.300000*%
%TD*%
G04 APERTURE END LIST*
D10*
%TO.P,U1,1,VBAT*%
%TO.N,+3V3*%
X8125000Y11290001D03*
%TO.P,U1,2,PC13*%
%TO.N,unconnected-(U1-PC13-Pad2)*%
X8125000Y10790001D03*
%TO.P,U1,3,PC14*%
%TO.N,unconnected-(U1-PC14-Pad3)*%
X8125000Y10290001D03*
%TO.P,U1,4,PC15*%
%TO.N,unconnected-(U1-PC15-Pad4)*%
X8125000Y9790001D03*
%TO.P,U1,5,PF0*%
%TO.N,/HSE_IN*%
X8125000Y9290001D03*
%TO.P,U1,6,PF1*%
%TO.N,/HSE_OUT*%
X8125000Y8790001D03*
%TO.P,U1,7,NRST*%
%TO.N,/NRST*%
X8125000Y8290001D03*
%TO.P,U1,8,VSSA*%
%TO.N,GND*%
X8125000Y7790001D03*
%TO.P,U1,9,VDDA*%
%TO.N,+3V3*%
X8125000Y7290001D03*
%TO.P,U1,10,PA0*%
%TO.N,unconnected-(U1-PA0-Pad10)*%
X8125000Y6790001D03*
%TO.P,U1,11,PA1*%
%TO.N,unconnected-(U1-PA1-Pad11)*%
X8125000Y6290001D03*
%TO.P,U1,12,PA2*%
%TO.N,/LED_A*%
X8125000Y5790001D03*
D11*
%TO.P,U1,13,PA3*%
%TO.N,/BTN*%
X8812500Y5102501D03*
%TO.P,U1,14,PA4*%
%TO.N,unconnected-(U1-PA4-Pad14)*%
X9312500Y5102501D03*
%TO.P,U1,15,PA5*%
%TO.N,unconnected-(U1-PA5-Pad15)*%
X9812500Y5102501D03*
%TO.P,U1,16,PA6*%
%TO.N,unconnected-(U1-PA6-Pad16)*%
X10312500Y5102501D03*
%TO.P,U1,17,PA7*%
%TO.N,unconnected-(U1-PA7-Pad17)*%
X10812500Y5102501D03*
%TO.P,U1,18,PB0*%
%TO.N,unconnected-(U1-PB0-Pad18)*%
X11312500Y5102501D03*
%TO.P,U1,19,PB1*%
%TO.N,unconnected-(U1-PB1-Pad19)*%
X11812500Y5102501D03*
%TO.P,U1,20,PB2*%
%TO.N,unconnected-(U1-PB2-Pad20)*%
X12312500Y5102501D03*
%TO.P,U1,21,PB10*%
%TO.N,/SCL*%
X12812500Y5102501D03*
%TO.P,U1,22,PB11*%
%TO.N,/SDA*%
X13312500Y5102501D03*
%TO.P,U1,23,VSS*%
%TO.N,GND*%
X13812500Y5102501D03*
%TO.P,U1,24,VDD*%
%TO.N,+3V3*%
X14312500Y5102501D03*
D10*
%TO.P,U1,25,PB12*%
%TO.N,unconnected-(U1-PB12-Pad25)*%
X15000000Y5790001D03*
%TO.P,U1,26,PB13*%
%TO.N,unconnected-(U1-PB13-Pad26)*%
X15000000Y6290001D03*
%TO.P,U1,27,PB14*%
%TO.N,unconnected-(U1-PB14-Pad27)*%
X15000000Y6790001D03*
%TO.P,U1,28,PB15*%
%TO.N,unconnected-(U1-PB15-Pad28)*%
X15000000Y7290001D03*
%TO.P,U1,29,PA8*%
%TO.N,unconnected-(U1-PA8-Pad29)*%
X15000000Y7790001D03*
%TO.P,U1,30,PA9*%
%TO.N,unconnected-(U1-PA9-Pad30)*%
X15000000Y8290001D03*
%TO.P,U1,31,PA10*%
%TO.N,unconnected-(U1-PA10-Pad31)*%
X15000000Y8790001D03*
%TO.P,U1,32,PA11*%
%TO.N,USB_D-*%
X15000000Y9290001D03*
%TO.P,U1,33,PA12*%
%TO.N,USB_D+*%
X15000000Y9790001D03*
%TO.P,U1,34,PA13*%
%TO.N,/SWDIO*%
X15000000Y10290001D03*
%TO.P,U1,35,VSS*%
%TO.N,GND*%
X15000000Y10790001D03*
%TO.P,U1,36,VDDIO2*%
%TO.N,+3V3*%
X15000000Y11290001D03*
D11*
%TO.P,U1,37,PA14*%
%TO.N,/SWCLK*%
X14312500Y11977501D03*
%TO.P,U1,38,PA15*%
%TO.N,unconnected-(U1-PA15-Pad38)*%
X13812500Y11977501D03*
%TO.P,U1,39,PB3*%
%TO.N,unconnected-(U1-PB3-Pad39)*%
X13312500Y11977501D03*
%TO.P,U1,40,PB4*%
%TO.N,unconnected-(U1-PB4-Pad40)*%
X12812500Y11977501D03*
%TO.P,U1,41,PB5*%
%TO.N,unconnected-(U1-PB5-Pad41)*%
X12312500Y11977501D03*
%TO.P,U1,42,PB6*%
%TO.N,unconnected-(U1-PB6-Pad42)*%
X11812500Y11977501D03*
%TO.P,U1,43,PB7*%
%TO.N,unconnected-(U1-PB7-Pad43)*%
X11312500Y11977501D03*
%TO.P,U1,44,BOOT0*%
%TO.N,/BOOT0*%
X10812500Y11977501D03*
%TO.P,U1,45,PB8*%
%TO.N,unconnected-(U1-PB8-Pad45)*%
X10312500Y11977501D03*
%TO.P,U1,46,PB9*%
%TO.N,unconnected-(U1-PB9-Pad46)*%
X9812500Y11977501D03*
%TO.P,U1,47,VSS*%
%TO.N,GND*%
X9312500Y11977501D03*
%TO.P,U1,48,VDD*%
%TO.N,+3V3*%
X8812500Y11977501D03*
D12*
%TO.P,U1,49,VSS*%
%TO.N,GND*%
X11562500Y8540001D03*
%TD*%
D13*
%TO.P,C12,1*%
%TO.N,+3V3*%
X16985000Y4365001D03*
%TO.P,C12,2*%
%TO.N,GND*%
X16985000Y5915001D03*
%TD*%
D14*
%TO.P,C4,1*%
%TO.N,+3V3*%
X14600000Y3890001D03*
%TO.P,C4,2*%
%TO.N,GND*%
X13640000Y3890001D03*
%TD*%
D15*
%TO.P,C2,1*%
%TO.N,+3V3*%
X6960000Y11290001D03*
%TO.P,C2,2*%
%TO.N,GND*%
X6960000Y12250001D03*
%TD*%
D16*
%TO.P,R3,1*%
%TO.N,+3V3*%
X10880000Y3970001D03*
%TO.P,R3,2*%
%TO.N,/SCL*%
X10880000Y2950001D03*
%TD*%
D17*
%TO.P,Y1,1,1*%
%TO.N,/HSE_IN*%
X2610000Y10860001D03*
%TO.P,Y1,2,2*%
%TO.N,GND*%
X2610000Y8660001D03*
%TO.P,Y1,3,3*%
%TO.N,/HSE_OUT*%
X4310000Y8660001D03*
%TO.P,Y1,4,4*%
%TO.N,GND*%
X4310000Y10860001D03*
%TD*%
D18*
%TO.P,C10,1*%
%TO.N,+3V3*%
X5660000Y3890001D03*
%TO.P,C10,2*%
%TO.N,GND*%
X5660000Y2930001D03*
%TD*%
D19*
%TO.P,R4,1*%
%TO.N,GND*%
X22407500Y10870001D03*
%TO.P,R4,2*%
%TO.N,Net-(P1-CC)*%
X23427500Y10870001D03*
%TD*%
D20*
%TO.P,R2,1*%
%TO.N,+3V3*%
X12940000Y2960001D03*
%TO.P,R2,2*%
%TO.N,/SDA*%
X11920000Y2960001D03*
%TD*%
D21*
%TO.P,C7,1*%
%TO.N,GND*%
X5030000Y7150001D03*
%TO.P,C7,2*%
%TO.N,/NRST*%
X5990000Y7150001D03*
%TD*%
D22*
%TO.P,U2,1,NC*%
%TO.N,unconnected-(U2-NC-Pad1)*%
X6830000Y3810001D03*
%TO.P,U2,2,NC*%
%TO.N,unconnected-(U2-NC-Pad2)*%
X6830000Y3310001D03*
%TO.P,U2,3,NC*%
%TO.N,unconnected-(U2-NC-Pad3)*%
X6830000Y2810001D03*
%TO.P,U2,4,GND*%
%TO.N,GND*%
X6830000Y2310001D03*
%TO.P,U2,5,SDA*%
%TO.N,/SDA*%
X9730000Y2310001D03*
%TO.P,U2,6,SCL*%
%TO.N,/SCL*%
X9730000Y2810001D03*
%TO.P,U2,7,NC*%
%TO.N,unconnected-(U2-NC-Pad7)*%
X9730000Y3310001D03*
%TO.P,U2,8,VCC*%
%TO.N,+3V3*%
X9730000Y3810001D03*
D23*
%TO.P,U2,9,EP*%
%TO.N,GND*%
X8280000Y3060001D03*
%TD*%
D24*
%TO.P,C11,1*%
%TO.N,VBUS*%
X22800000Y6875001D03*
%TO.P,C11,2*%
%TO.N,GND*%
X22800000Y5325001D03*
%TD*%
D25*
%TO.P,P1,A1,GND*%
%TO.N,GND*%
X24037500Y5135001D03*
D26*
X24687500Y11310001D03*
D25*
X24037500Y11985001D03*
D27*
%TO.P,P1,A2,TX1+*%
%TO.N,unconnected-(P1-TX1+-PadA2)*%
X24687500Y10810001D03*
%TO.P,P1,A3,TX1-*%
%TO.N,unconnected-(P1-TX1--PadA3)*%
X24687500Y10310001D03*
%TO.P,P1,A4,VBUS*%
%TO.N,VBUS*%
X24687500Y9810001D03*
%TO.P,P1,A5,CC*%
%TO.N,Net-(P1-CC)*%
X24687500Y9310001D03*
%TO.P,P1,A6,D+*%
%TO.N,USB_CONN_D+*%
X24687500Y8810001D03*
%TO.P,P1,A7,D-*%
%TO.N,USB_CONN_D-*%
X24687500Y8310001D03*
%TO.P,P1,A8,SBU1*%
%TO.N,unconnected-(P1-SBU1-PadA8)*%
X24687500Y7810001D03*
%TO.P,P1,A9,VBUS*%
%TO.N,VBUS*%
X24687500Y7310001D03*
%TO.P,P1,A10,RX2-*%
%TO.N,unconnected-(P1-RX2--PadA10)*%
X24687500Y6810001D03*
%TO.P,P1,A11,RX2+*%
%TO.N,unconnected-(P1-RX2+-PadA11)*%
X24687500Y6310001D03*
D26*
%TO.P,P1,A12,GND*%
%TO.N,GND*%
X24687500Y5810001D03*
%TD*%
D28*
%TO.P,U3,1,GND*%
%TO.N,GND*%
X18710000Y5990001D03*
%TO.P,U3,2,VO*%
%TO.N,+3V3*%
X18710000Y4090001D03*
%TO.P,U3,3,VI*%
%TO.N,VBUS*%
X20585000Y5040001D03*
%TD*%
D15*
%TO.P,C8,1*%
%TO.N,/HSE_IN*%
X5710000Y10180001D03*
%TO.P,C8,2*%
%TO.N,GND*%
X5710000Y11140001D03*
%TD*%
D19*
%TO.P,R1,1*%
%TO.N,GND*%
X9500000Y15690001D03*
%TO.P,R1,2*%
%TO.N,/BOOT0*%
X10520000Y15690001D03*
%TD*%
D18*
%TO.P,C5,1*%
%TO.N,+3V3*%
X16210000Y11670001D03*
%TO.P,C5,2*%
%TO.N,GND*%
X16210000Y10710001D03*
%TD*%
D15*
%TO.P,C3,1*%
%TO.N,+3V3*%
X6970000Y7090001D03*
%TO.P,C3,2*%
%TO.N,GND*%
X6970000Y8050001D03*
%TD*%
%TO.P,C9,1*%
%TO.N,/HSE_OUT*%
X5690000Y8260001D03*
%TO.P,C9,2*%
%TO.N,GND*%
X5690000Y9220001D03*
%TD*%
D29*
%TO.P,J1,1,Pin_1*%
%TO.N,+3V3*%
X20390000Y14550001D03*
D30*
%TO.P,J1,2,Pin_2*%
%TO.N,/SWDIO*%
X17850000Y14550001D03*
%TO.P,J1,3,Pin_3*%
%TO.N,/SWCLK*%
X15310000Y14550001D03*
%TO.P,J1,4,Pin_4*%
%TO.N,GND*%
X12770000Y14550001D03*
%TD*%
D31*
%TO.P,U4,1,I/O1*%
%TO.N,USB_CONN_D-*%
X20647500Y7590001D03*
%TO.P,U4,2,GND*%
%TO.N,GND*%
X20647500Y8540001D03*
%TO.P,U4,3,I/O2*%
%TO.N,USB_CONN_D+*%
X20647500Y9490001D03*
%TO.P,U4,4,I/O2*%
%TO.N,USB_D+*%
X18372500Y9490001D03*
%TO.P,U4,5,VBUS*%
%TO.N,VBUS*%
X18372500Y8540001D03*
%TO.P,U4,6,I/O1*%
%TO.N,USB_D-*%
X18372500Y7590001D03*
%TD*%
D32*
%TO.P,C1,1*%
%TO.N,+3V3*%
X8250000Y14450001D03*
%TO.P,C1,2*%
%TO.N,GND*%
X9800000Y14450001D03*
%TD*%
D21*
%TO.P,C6,1*%
%TO.N,+3V3*%
X8540000Y13180001D03*
%TO.P,C6,2*%
%TO.N,GND*%
X9500000Y13180001D03*
%TD*%
D33*
%TO.N,+3V3*%
X15010000Y5100001D03*
%TO.N,GND*%
X22720000Y11890001D03*
X8650000Y15420001D03*
X21510000Y4230001D03*
D34*
X6571974Y9557001D03*
D33*
X1520000Y9200001D03*
X16985000Y6890001D03*
X6834498Y1614499D03*
X6960000Y13040001D03*
%TO.N,VBUS*%
X23590000Y7310001D03*
%TO.N,/LED_A*%
X7200000Y5790001D03*
%TO.N,/BTN*%
X7770000Y5080001D03*
%TD*%
D35*
%TO.N,/HSE_OUT*%
X7534249Y8957001D02*
X6387000Y8957001D01*
X6387000Y8957001D02*
X5690000Y8260001D01*
X7701249Y8790001D02*
X7534249Y8957001D01*
X5690000Y8260001D02*
X4710000Y8260001D01*
X8125000Y8790001D02*
X7701249Y8790001D01*
D36*
%TO.N,+3V3*%
X8250000Y13470001D02*
X8540000Y13180001D01*
X13979999Y2960001D02*
X14600000Y3580002D01*
X6960000Y11290001D02*
X7564220Y11290001D01*
X8785500Y11950501D02*
X8785500Y11977501D01*
D37*
X14315000Y5100001D02*
X14312500Y5102501D01*
D36*
X9380000Y4260001D02*
X9560000Y4260001D01*
D37*
X7505642Y7090001D02*
X6970000Y7090001D01*
X7705642Y7290001D02*
X7505642Y7090001D01*
D36*
X8457624Y16460001D02*
X7760000Y15762377D01*
D37*
X8540000Y13180001D02*
X8540000Y12700001D01*
D36*
X16520000Y16460001D02*
X8457624Y16460001D01*
D37*
X14312500Y4627501D02*
X14600000Y4340001D01*
X15380000Y11670001D02*
X16210000Y11670001D01*
D36*
X7440000Y4260001D02*
X9380000Y4260001D01*
D37*
X15007500Y5102501D02*
X15010000Y5100001D01*
X14600000Y4340001D02*
X14600000Y3890001D01*
D36*
X5660000Y3890001D02*
X5660000Y5774971D01*
X5177624Y3890001D02*
X700000Y8367625D01*
D37*
X16210000Y11670001D02*
X16510000Y11970001D01*
D36*
X9560000Y4260001D02*
X9850000Y3970001D01*
X7110000Y4590001D02*
X7440000Y4260001D01*
X15007500Y5102501D02*
X15745000Y4365001D01*
X5320000Y3890001D02*
X5660000Y3890001D01*
X18480000Y16460001D02*
X16520000Y16460001D01*
X20390000Y14550001D02*
X18480000Y16460001D01*
X16985000Y4365001D02*
X18435000Y4365001D01*
X12940000Y2960001D02*
X12940000Y2640002D01*
X4170000Y14450001D02*
X8250000Y14450001D01*
X7564220Y11290001D02*
X7566220Y11292001D01*
X8250000Y14450001D02*
X8250000Y13470001D01*
X5660000Y3890001D02*
X5177624Y3890001D01*
X700000Y10980001D02*
X4170000Y14450001D01*
D37*
X8812500Y12427501D02*
X8812500Y11977501D01*
D36*
X6360000Y4590001D02*
X7110000Y4590001D01*
X12940000Y2960001D02*
X13979999Y2960001D01*
X5660000Y5774971D02*
X6970000Y7084971D01*
X7760000Y15762377D02*
X7760000Y14940001D01*
D37*
X16510000Y11970001D02*
X16510000Y16450001D01*
D36*
X14600000Y3580002D02*
X14600000Y3890001D01*
D37*
X14312500Y5102501D02*
X14312500Y4627501D01*
D36*
X11089999Y790001D02*
X6527624Y790001D01*
X7566220Y11292001D02*
X8127000Y11292001D01*
X7760000Y14940001D02*
X8250000Y14450001D01*
X8127000Y11292001D02*
X8785500Y11950501D01*
X700000Y8367625D02*
X700000Y10980001D01*
X12940000Y2640002D02*
X11089999Y790001D01*
X15007500Y5102501D02*
X14339500Y5102501D01*
X18435000Y4365001D02*
X18710000Y4090001D01*
D37*
X8540000Y12700001D02*
X8812500Y12427501D01*
D36*
X4900000Y3470001D02*
X5320000Y3890001D01*
X5660000Y3890001D02*
X6360000Y4590001D01*
X9850000Y3970001D02*
X10880000Y3970001D01*
X16985000Y4365001D02*
X15745000Y4365001D01*
X9380000Y4260001D02*
X9730000Y3910001D01*
X4900000Y2417625D02*
X4900000Y3470001D01*
D37*
X15000000Y11290001D02*
X15380000Y11670001D01*
X8125000Y7290001D02*
X7705642Y7290001D01*
D36*
X6527624Y790001D02*
X4900000Y2417625D01*
D37*
%TO.N,GND*%
X24087500Y11602959D02*
X24346479Y11343980D01*
D36*
X6834498Y2283001D02*
X6830000Y2283001D01*
X9800000Y14450001D02*
X9800000Y13480001D01*
D37*
X24087500Y11985001D02*
X24087500Y11602959D01*
D36*
X9800000Y13480001D02*
X9500000Y13180001D01*
X5660000Y2650002D02*
X5660000Y2930001D01*
X19500000Y9920001D02*
X20450000Y10870001D01*
D37*
X8125000Y7790001D02*
X7705642Y7790001D01*
D36*
X5710000Y11420000D02*
X5710000Y11140001D01*
X6834498Y1614499D02*
X6834498Y2283001D01*
D37*
X7445642Y8050001D02*
X6970000Y8050001D01*
D36*
X1520000Y9200001D02*
X2060000Y8660001D01*
D37*
X21995290Y5325001D02*
X22800000Y5325001D01*
X8125000Y7790001D02*
X10812500Y7790001D01*
X16210000Y10710001D02*
X15080000Y10710001D01*
D36*
X3620000Y7150001D02*
X2610000Y8160001D01*
X18635000Y5915001D02*
X18710000Y5990001D01*
D37*
X9500000Y13180001D02*
X9500000Y12700001D01*
D36*
X6960000Y12250001D02*
X6540001Y12250001D01*
X20647500Y8540001D02*
X19985001Y8540001D01*
D37*
X7705642Y7790001D02*
X7445642Y8050001D01*
D36*
X6132030Y9557001D02*
X6571974Y9557001D01*
X8920000Y15690001D02*
X9500000Y15690001D01*
X22407500Y10870001D02*
X22407500Y11577501D01*
X2610000Y8160001D02*
X2610000Y8660001D01*
X5690000Y9220001D02*
X5795030Y9220001D01*
X19500000Y9025002D02*
X19500000Y9920001D01*
X6540001Y12250001D02*
X5710000Y11420000D01*
X9500000Y15690001D02*
X9500000Y14750001D01*
D37*
X21672500Y5002211D02*
X21995290Y5325001D01*
D36*
X6960000Y13040001D02*
X6960000Y12250001D01*
X9500000Y14750001D02*
X9800000Y14450001D01*
X20450000Y10870001D02*
X22407500Y10870001D01*
X8650000Y15420001D02*
X8920000Y15690001D01*
D37*
X22720000Y11890001D02*
X23992500Y11890001D01*
X24087500Y5517043D02*
X24346479Y5776022D01*
X13812500Y5102501D02*
X13812500Y6290001D01*
D36*
X8280000Y2981001D02*
X7582000Y2283001D01*
X5030000Y7150001D02*
X3620000Y7150001D01*
X19985001Y8540001D02*
X19500000Y9025002D01*
D37*
X24087500Y5135001D02*
X24087500Y5517043D01*
D36*
X5795030Y9220001D02*
X6132030Y9557001D01*
X4590000Y11140001D02*
X5710000Y11140001D01*
D37*
X21672500Y4392501D02*
X21672500Y5002211D01*
X24087500Y5135001D02*
X22990000Y5135001D01*
X9312500Y11977501D02*
X9312500Y10790001D01*
D36*
X2060000Y8660001D02*
X2610000Y8660001D01*
X16985000Y5915001D02*
X18635000Y5915001D01*
D37*
X13812500Y5102501D02*
X13812500Y4683143D01*
D36*
X6027001Y2283001D02*
X5660000Y2650002D01*
D37*
X13812500Y4683143D02*
X13640000Y4510643D01*
X9312500Y12512501D02*
X9312500Y11977501D01*
X9500000Y12700001D02*
X9312500Y12512501D01*
X15080000Y10710001D02*
X15000000Y10790001D01*
X21510000Y4230001D02*
X21672500Y4392501D01*
D36*
X22407500Y11577501D02*
X22720000Y11890001D01*
D37*
X15000000Y10790001D02*
X13812500Y10790001D01*
X13640000Y4510643D02*
X13640000Y3890001D01*
D36*
X16985000Y6890001D02*
X16985000Y5915001D01*
X7582000Y2283001D02*
X6027001Y2283001D01*
D35*
%TO.N,/BOOT0*%
X10520000Y15690001D02*
X10812500Y15397501D01*
X10812500Y15397501D02*
X10812500Y11977501D01*
%TO.N,USB_D-*%
X15746800Y9315001D02*
X16746800Y8315001D01*
X15681251Y9315001D02*
X15746800Y9315001D01*
X15000000Y9290001D02*
X15656251Y9290001D01*
X15656251Y9290001D02*
X15681251Y9315001D01*
X17285000Y8315001D02*
X18010000Y7590001D01*
X16746800Y8315001D02*
X17285000Y8315001D01*
%TO.N,/SCL*%
X11760000Y3830001D02*
X10880000Y2950001D01*
X12812500Y5102501D02*
X12812500Y4665002D01*
X10740000Y2810001D02*
X9730000Y2810001D01*
X12812500Y4665002D02*
X11977499Y3830001D01*
X11977499Y3830001D02*
X11760000Y3830001D01*
D37*
%TO.N,VBUS*%
X25687500Y7574905D02*
X25422596Y7310001D01*
D36*
X18372500Y8540001D02*
X19034999Y8540001D01*
D37*
X25422596Y7310001D02*
X24687500Y7310001D01*
X24687500Y7310001D02*
X23235000Y7310001D01*
D36*
X19535000Y8040000D02*
X19535000Y6755185D01*
D37*
X24687500Y9810001D02*
X25422596Y9810001D01*
D36*
X19034999Y8540001D02*
X19535000Y8040000D01*
X20965000Y5040001D02*
X22800000Y6875001D01*
X19535000Y6755185D02*
X20585000Y5705185D01*
D37*
X23235000Y7310001D02*
X22800000Y6875001D01*
X25687500Y9545097D02*
X25687500Y7574905D01*
X25422596Y9810001D02*
X25687500Y9545097D01*
D36*
X20585000Y5705185D02*
X20585000Y5040001D01*
D35*
%TO.N,/NRST*%
X6350000Y8366135D02*
X6350000Y7510001D01*
X7398801Y8630001D02*
X6613866Y8630001D01*
X8125000Y8290001D02*
X7738801Y8290001D01*
X6613866Y8630001D02*
X6350000Y8366135D01*
X6350000Y7510001D02*
X5990000Y7150001D01*
X7738801Y8290001D02*
X7398801Y8630001D01*
%TO.N,/HSE_IN*%
X8125000Y9290001D02*
X7687501Y9290001D01*
X7687501Y9290001D02*
X6797501Y10180001D01*
X5710000Y10180001D02*
X5390000Y9860001D01*
X5390000Y9860001D02*
X3550000Y9860001D01*
X3550000Y9860001D02*
X2610000Y10800001D01*
X6797501Y10180001D02*
X5710000Y10180001D01*
%TO.N,/SWCLK*%
X15310000Y12975001D02*
X14312500Y11977501D01*
X15310000Y14550001D02*
X15310000Y12975001D01*
%TO.N,USB_D+*%
X15681251Y9765001D02*
X15933200Y9765001D01*
X15933200Y9765001D02*
X16933200Y8765001D01*
X15000000Y9790001D02*
X15656251Y9790001D01*
X17285000Y8765001D02*
X18010000Y9490001D01*
X16933200Y8765001D02*
X17285000Y8765001D01*
X15656251Y9790001D02*
X15681251Y9765001D01*
D37*
%TO.N,/LED_A*%
X8125000Y5790001D02*
X7200000Y5790001D01*
D35*
%TO.N,/SWDIO*%
X15000000Y10290001D02*
X15693866Y10290001D01*
X15693866Y10290001D02*
X15853866Y10130001D01*
X15853866Y10130001D02*
X16566134Y10130001D01*
X17850000Y11413867D02*
X17850000Y14550001D01*
X16566134Y10130001D02*
X17850000Y11413867D01*
%TO.N,/SDA*%
X13312500Y5102501D02*
X13312500Y4716302D01*
X9730000Y2310001D02*
X11270000Y2310001D01*
X13263000Y4666802D02*
X13263000Y4449135D01*
X13312500Y4716302D02*
X13263000Y4666802D01*
X13263000Y4449135D02*
X11920000Y3106135D01*
X11270000Y2310001D02*
X11920000Y2960001D01*
D37*
%TO.N,Net-(P1-CC)*%
X24687500Y9310001D02*
X23952404Y9310001D01*
X23427500Y9834905D02*
X23427500Y10870001D01*
X23952404Y9310001D02*
X23427500Y9834905D01*
%TO.N,/BTN*%
X7792500Y5102501D02*
X8812500Y5102501D01*
X7770000Y5080001D02*
X7792500Y5102501D01*
D35*
%TO.N,USB_CONN_D+*%
X22366251Y8765001D02*
X24438059Y8765001D01*
X21641251Y9490001D02*
X22366251Y8765001D01*
X20647500Y9490001D02*
X21641251Y9490001D01*
%TO.N,USB_CONN_D-*%
X21641251Y7590001D02*
X22366251Y8315001D01*
X22366251Y8315001D02*
X24438059Y8315001D01*
X20647500Y7590001D02*
X21641251Y7590001D01*
%TD*%
M02*
