%TF.GenerationSoftware,KiCad,Pcbnew,8.0.3*%
%TF.CreationDate,2024-07-16T16:20:45-05:00*%
%TF.ProjectId,kryptonite,6b727970-746f-46e6-9974-652e6b696361,rev?*%
%TF.SameCoordinates,PX813b7f0PY6643331*%
%TF.FileFunction,Paste,Top*%
%TF.FilePolarity,Positive*%
%FSLAX46Y46*%
G04 Gerber Fmt 4.6, Leading zero omitted, Abs format (unit mm)*
G04 Created by KiCad (PCBNEW 8.0.3) date 2024-07-16 16:20:45*
%MOMM*%
%LPD*%
G01*
G04 APERTURE LIST*
G04 Aperture macros list*
%AMRoundRect*
0 Rectangle with rounded corners*
0 $1 Rounding radius*
0 $2 $3 $4 $5 $6 $7 $8 $9 X,Y pos of 4 corners*
0 Add a 4 corners polygon primitive as box body*
4,1,4,$2,$3,$4,$5,$6,$7,$8,$9,$2,$3,0*
0 Add four circle primitives for the rounded corners*
1,1,$1+$1,$2,$3*
1,1,$1+$1,$4,$5*
1,1,$1+$1,$6,$7*
1,1,$1+$1,$8,$9*
0 Add four rect primitives between the rounded corners*
20,1,$1+$1,$2,$3,$4,$5,0*
20,1,$1+$1,$4,$5,$6,$7,0*
20,1,$1+$1,$6,$7,$8,$9,0*
20,1,$1+$1,$8,$9,$2,$3,0*%
G04 Aperture macros list end*
%ADD10RoundRect,0.250000X-0.315000X-0.315000X0.315000X-0.315000X0.315000X0.315000X-0.315000X0.315000X0*%
%ADD11RoundRect,0.062500X-0.375000X-0.062500X0.375000X-0.062500X0.375000X0.062500X-0.375000X0.062500X0*%
%ADD12RoundRect,0.062500X-0.062500X-0.375000X0.062500X-0.375000X0.062500X0.375000X-0.062500X0.375000X0*%
%ADD13RoundRect,0.225000X0.250000X-0.225000X0.250000X0.225000X-0.250000X0.225000X-0.250000X-0.225000X0*%
%ADD14RoundRect,0.140000X0.140000X0.170000X-0.140000X0.170000X-0.140000X-0.170000X0.140000X-0.170000X0*%
%ADD15RoundRect,0.140000X0.170000X-0.140000X0.170000X0.140000X-0.170000X0.140000X-0.170000X-0.140000X0*%
%ADD16RoundRect,0.135000X-0.185000X0.135000X-0.185000X-0.135000X0.185000X-0.135000X0.185000X0.135000X0*%
%ADD17R,1.200000X1.400000*%
%ADD18RoundRect,0.140000X-0.170000X0.140000X-0.170000X-0.140000X0.170000X-0.140000X0.170000X0.140000X0*%
%ADD19RoundRect,0.135000X-0.135000X-0.185000X0.135000X-0.185000X0.135000X0.185000X-0.135000X0.185000X0*%
%ADD20RoundRect,0.135000X0.135000X0.185000X-0.135000X0.185000X-0.135000X-0.185000X0.135000X-0.185000X0*%
%ADD21RoundRect,0.140000X-0.140000X-0.170000X0.140000X-0.170000X0.140000X0.170000X-0.140000X0.170000X0*%
%ADD22R,0.500000X0.600000*%
%ADD23R,0.750000X0.300000*%
%ADD24RoundRect,0.225000X-0.250000X0.225000X-0.250000X-0.225000X0.250000X-0.225000X0.250000X0.225000X0*%
%ADD25RoundRect,0.112000X0.238000X-0.238000X0.238000X0.238000X-0.238000X0.238000X-0.238000X-0.238000X0*%
%ADD26RoundRect,0.055000X0.595000X-0.055000X0.595000X0.055000X-0.595000X0.055000X-0.595000X-0.055000X0*%
%ADD27RoundRect,0.062500X0.587500X-0.062500X0.587500X0.062500X-0.587500X0.062500X-0.587500X-0.062500X0*%
%ADD28RoundRect,0.150000X-0.587500X-0.150000X0.587500X-0.150000X0.587500X0.150000X-0.587500X0.150000X0*%
%ADD29RoundRect,0.150000X0.512500X0.150000X-0.512500X0.150000X-0.512500X-0.150000X0.512500X-0.150000X0*%
%ADD30RoundRect,0.225000X-0.225000X-0.250000X0.225000X-0.250000X0.225000X0.250000X-0.225000X0.250000X0*%
G04 APERTURE END LIST*
D10*
%TO.C,U1*%
X9462500Y10640001D03*
X9462500Y9240001D03*
X9462500Y7840001D03*
X9462500Y6440001D03*
X10862500Y10640001D03*
X10862500Y9240001D03*
X10862500Y7840001D03*
X10862500Y6440001D03*
X12262500Y10640001D03*
X12262500Y9240001D03*
X12262500Y7840001D03*
X12262500Y6440001D03*
X13662500Y10640001D03*
X13662500Y9240001D03*
X13662500Y7840001D03*
X13662500Y6440001D03*
D11*
X8125000Y11290001D03*
X8125000Y10790001D03*
X8125000Y10290001D03*
X8125000Y9790001D03*
X8125000Y9290001D03*
X8125000Y8790001D03*
X8125000Y8290001D03*
X8125000Y7790001D03*
X8125000Y7290001D03*
X8125000Y6790001D03*
X8125000Y6290001D03*
X8125000Y5790001D03*
D12*
X8812500Y5102501D03*
X9312500Y5102501D03*
X9812500Y5102501D03*
X10312500Y5102501D03*
X10812500Y5102501D03*
X11312500Y5102501D03*
X11812500Y5102501D03*
X12312500Y5102501D03*
X12812500Y5102501D03*
X13312500Y5102501D03*
X13812500Y5102501D03*
X14312500Y5102501D03*
D11*
X15000000Y5790001D03*
X15000000Y6290001D03*
X15000000Y6790001D03*
X15000000Y7290001D03*
X15000000Y7790001D03*
X15000000Y8290001D03*
X15000000Y8790001D03*
X15000000Y9290001D03*
X15000000Y9790001D03*
X15000000Y10290001D03*
X15000000Y10790001D03*
X15000000Y11290001D03*
D12*
X14312500Y11977501D03*
X13812500Y11977501D03*
X13312500Y11977501D03*
X12812500Y11977501D03*
X12312500Y11977501D03*
X11812500Y11977501D03*
X11312500Y11977501D03*
X10812500Y11977501D03*
X10312500Y11977501D03*
X9812500Y11977501D03*
X9312500Y11977501D03*
X8812500Y11977501D03*
%TD*%
D13*
%TO.C,C12*%
X16985000Y4365001D03*
X16985000Y5915001D03*
%TD*%
D14*
%TO.C,C4*%
X14600000Y3890001D03*
X13640000Y3890001D03*
%TD*%
D15*
%TO.C,C2*%
X6960000Y11290001D03*
X6960000Y12250001D03*
%TD*%
D16*
%TO.C,R3*%
X10880000Y3970001D03*
X10880000Y2950001D03*
%TD*%
D17*
%TO.C,Y1*%
X2610000Y10860001D03*
X2610000Y8660001D03*
X4310000Y8660001D03*
X4310000Y10860001D03*
%TD*%
D18*
%TO.C,C10*%
X5660000Y3890001D03*
X5660000Y2930001D03*
%TD*%
D19*
%TO.C,R4*%
X22407500Y10870001D03*
X23427500Y10870001D03*
%TD*%
D20*
%TO.C,R2*%
X12940000Y2960001D03*
X11920000Y2960001D03*
%TD*%
D21*
%TO.C,C7*%
X5030000Y7150001D03*
X5990000Y7150001D03*
%TD*%
D22*
%TO.C,U2*%
X7955000Y3435001D03*
X7955000Y2685001D03*
X8605000Y3435001D03*
X8605000Y2685001D03*
D23*
X6830000Y3810001D03*
X6830000Y3310001D03*
X6830000Y2810001D03*
X6830000Y2310001D03*
X9730000Y2310001D03*
X9730000Y2810001D03*
X9730000Y3310001D03*
X9730000Y3810001D03*
%TD*%
D24*
%TO.C,C11*%
X22800000Y6875001D03*
X22800000Y5325001D03*
%TD*%
D25*
%TO.C,P1*%
X24037500Y5135001D03*
D26*
X24687500Y11310001D03*
D25*
X24037500Y11985001D03*
D27*
X24687500Y10810001D03*
X24687500Y10310001D03*
X24687500Y9810001D03*
X24687500Y9310001D03*
X24687500Y8810001D03*
X24687500Y8310001D03*
X24687500Y7810001D03*
X24687500Y7310001D03*
X24687500Y6810001D03*
X24687500Y6310001D03*
D26*
X24687500Y5810001D03*
%TD*%
D28*
%TO.C,U3*%
X18710000Y5990001D03*
X18710000Y4090001D03*
X20585000Y5040001D03*
%TD*%
D15*
%TO.C,C8*%
X5710000Y10180001D03*
X5710000Y11140001D03*
%TD*%
D19*
%TO.C,R1*%
X9500000Y15690001D03*
X10520000Y15690001D03*
%TD*%
D18*
%TO.C,C5*%
X16210000Y11670001D03*
X16210000Y10710001D03*
%TD*%
D15*
%TO.C,C3*%
X6970000Y7090001D03*
X6970000Y8050001D03*
%TD*%
%TO.C,C9*%
X5690000Y8260001D03*
X5690000Y9220001D03*
%TD*%
D29*
%TO.C,U4*%
X20647500Y7590001D03*
X20647500Y8540001D03*
X20647500Y9490001D03*
X18372500Y9490001D03*
X18372500Y8540001D03*
X18372500Y7590001D03*
%TD*%
D30*
%TO.C,C1*%
X8250000Y14450001D03*
X9800000Y14450001D03*
%TD*%
D21*
%TO.C,C6*%
X8540000Y13180001D03*
X9500000Y13180001D03*
%TD*%
M02*
