%TF.GenerationSoftware,KiCad,Pcbnew,8.0.3*%
%TF.CreationDate,2024-07-16T16:20:45-05:00*%
%TF.ProjectId,kryptonite,6b727970-746f-46e6-9974-652e6b696361,rev?*%
%TF.SameCoordinates,PX813b7f0PY6643331*%
%TF.FileFunction,AssemblyDrawing,Top*%
%FSLAX46Y46*%
G04 Gerber Fmt 4.6, Leading zero omitted, Abs format (unit mm)*
G04 Created by KiCad (PCBNEW 8.0.3) date 2024-07-16 16:20:45*
%MOMM*%
%LPD*%
G01*
G04 APERTURE LIST*
%ADD10C,0.100000*%
G04 APERTURE END LIST*
D10*
%TO.C,U1*%
X8062500Y11040001D02*
X9062500Y12040001D01*
X8062500Y5040001D02*
X8062500Y11040001D01*
X9062500Y12040001D02*
X15062500Y12040001D01*
X15062500Y12040001D02*
X15062500Y5040001D01*
X15062500Y5040001D02*
X8062500Y5040001D01*
%TO.C,C12*%
X16585000Y5940001D02*
X17385000Y5940001D01*
X16585000Y4340001D02*
X16585000Y5940001D01*
X17385000Y5940001D02*
X17385000Y4340001D01*
X17385000Y4340001D02*
X16585000Y4340001D01*
%TO.C,C4*%
X13620000Y4140001D02*
X14620000Y4140001D01*
X13620000Y3640001D02*
X13620000Y4140001D01*
X14620000Y4140001D02*
X14620000Y3640001D01*
X14620000Y3640001D02*
X13620000Y3640001D01*
%TO.C,C2*%
X6710000Y12270001D02*
X7210000Y12270001D01*
X6710000Y11270001D02*
X6710000Y12270001D01*
X7210000Y12270001D02*
X7210000Y11270001D01*
X7210000Y11270001D02*
X6710000Y11270001D01*
%TO.C,R3*%
X10610000Y3985001D02*
X11150000Y3985001D01*
X10610000Y2935001D02*
X10610000Y3985001D01*
X11150000Y3985001D02*
X11150000Y2935001D01*
X11150000Y2935001D02*
X10610000Y2935001D01*
%TO.C,Y1*%
X2210000Y11360001D02*
X2210000Y8160001D01*
X2210000Y8160001D02*
X4710000Y8160001D01*
X3210000Y11360001D02*
X2210000Y10360001D01*
X4710000Y11360001D02*
X2210000Y11360001D01*
X4710000Y8160001D02*
X4710000Y11360001D01*
%TO.C,C10*%
X5410000Y3910001D02*
X5910000Y3910001D01*
X5410000Y2910001D02*
X5410000Y3910001D01*
X5910000Y3910001D02*
X5910000Y2910001D01*
X5910000Y2910001D02*
X5410000Y2910001D01*
%TO.C,R4*%
X22392500Y11140001D02*
X23442500Y11140001D01*
X22392500Y10600001D02*
X22392500Y11140001D01*
X23442500Y11140001D02*
X23442500Y10600001D01*
X23442500Y10600001D02*
X22392500Y10600001D01*
%TO.C,R2*%
X11905000Y3230001D02*
X12955000Y3230001D01*
X11905000Y2690001D02*
X11905000Y3230001D01*
X12955000Y3230001D02*
X12955000Y2690001D01*
X12955000Y2690001D02*
X11905000Y2690001D01*
%TO.C,C7*%
X5010000Y7400001D02*
X6010000Y7400001D01*
X5010000Y6900001D02*
X5010000Y7400001D01*
X6010000Y7400001D02*
X6010000Y6900001D01*
X6010000Y6900001D02*
X5010000Y6900001D01*
%TO.C,U2*%
X6780000Y3560001D02*
X7280000Y4060001D01*
X6780000Y2060001D02*
X6780000Y3560001D01*
X7280000Y4060001D02*
X9780000Y4060001D01*
X9780000Y4060001D02*
X9780000Y2060001D01*
X9780000Y2060001D02*
X6780000Y2060001D01*
%TO.C,C11*%
X22400000Y6900001D02*
X23200000Y6900001D01*
X22400000Y5300001D02*
X22400000Y6900001D01*
X23200000Y6900001D02*
X23200000Y5300001D01*
X23200000Y5300001D02*
X22400000Y5300001D01*
%TO.C,U3*%
X18997500Y6165001D02*
X19322500Y6490001D01*
X18997500Y3590001D02*
X18997500Y6165001D01*
X19322500Y6490001D02*
X20297500Y6490001D01*
X20297500Y6490001D02*
X20297500Y3590001D01*
X20297500Y3590001D02*
X18997500Y3590001D01*
%TO.C,C8*%
X5460000Y11160001D02*
X5960000Y11160001D01*
X5460000Y10160001D02*
X5460000Y11160001D01*
X5960000Y11160001D02*
X5960000Y10160001D01*
X5960000Y10160001D02*
X5460000Y10160001D01*
%TO.C,R1*%
X9485000Y15960001D02*
X10535000Y15960001D01*
X9485000Y15420001D02*
X9485000Y15960001D01*
X10535000Y15960001D02*
X10535000Y15420001D01*
X10535000Y15420001D02*
X9485000Y15420001D01*
%TO.C,C5*%
X15960000Y11690001D02*
X16460000Y11690001D01*
X15960000Y10690001D02*
X15960000Y11690001D01*
X16460000Y11690001D02*
X16460000Y10690001D01*
X16460000Y10690001D02*
X15960000Y10690001D01*
%TO.C,C3*%
X6720000Y8070001D02*
X7220000Y8070001D01*
X6720000Y7070001D02*
X6720000Y8070001D01*
X7220000Y8070001D02*
X7220000Y7070001D01*
X7220000Y7070001D02*
X6720000Y7070001D01*
%TO.C,C9*%
X5440000Y9240001D02*
X5940000Y9240001D01*
X5440000Y8240001D02*
X5440000Y9240001D01*
X5940000Y9240001D02*
X5940000Y8240001D01*
X5940000Y8240001D02*
X5440000Y8240001D01*
%TO.C,J1*%
X11500000Y15820001D02*
X21025000Y15820001D01*
X11500000Y13280001D02*
X11500000Y15820001D01*
X21025000Y15820001D02*
X21660000Y15185001D01*
X21660000Y15185001D02*
X21660000Y13280001D01*
X21660000Y13280001D02*
X11500000Y13280001D01*
%TO.C,U4*%
X18710000Y9990001D02*
X20310000Y9990001D01*
X18710000Y7090001D02*
X18710000Y9990001D01*
X19910000Y7090001D02*
X18710000Y7090001D01*
X20310000Y9990001D02*
X20310000Y7490001D01*
X20310000Y7490001D02*
X19910000Y7090001D01*
%TO.C,C1*%
X8225000Y14850001D02*
X9825000Y14850001D01*
X8225000Y14050001D02*
X8225000Y14850001D01*
X9825000Y14850001D02*
X9825000Y14050001D01*
X9825000Y14050001D02*
X8225000Y14050001D01*
%TO.C,C6*%
X8520000Y13430001D02*
X9520000Y13430001D01*
X8520000Y12930001D02*
X8520000Y13430001D01*
X9520000Y13430001D02*
X9520000Y12930001D01*
X9520000Y12930001D02*
X8520000Y12930001D01*
%TD*%
M02*
