%TF.GenerationSoftware,KiCad,Pcbnew,8.0.3*%
%TF.CreationDate,2024-07-16T16:20:45-05:00*%
%TF.ProjectId,kryptonite,6b727970-746f-46e6-9974-652e6b696361,rev?*%
%TF.SameCoordinates,PX813b7f0PY6643331*%
%TF.FileFunction,Copper,L2,Bot*%
%TF.FilePolarity,Positive*%
%FSLAX46Y46*%
G04 Gerber Fmt 4.6, Leading zero omitted, Abs format (unit mm)*
G04 Created by KiCad (PCBNEW 8.0.3) date 2024-07-16 16:20:45*
%MOMM*%
%LPD*%
G01*
G04 APERTURE LIST*
G04 Aperture macros list*
%AMRoundRect*
0 Rectangle with rounded corners*
0 $1 Rounding radius*
0 $2 $3 $4 $5 $6 $7 $8 $9 X,Y pos of 4 corners*
0 Add a 4 corners polygon primitive as box body*
4,1,4,$2,$3,$4,$5,$6,$7,$8,$9,$2,$3,0*
0 Add four circle primitives for the rounded corners*
1,1,$1+$1,$2,$3*
1,1,$1+$1,$4,$5*
1,1,$1+$1,$6,$7*
1,1,$1+$1,$8,$9*
0 Add four rect primitives between the rounded corners*
20,1,$1+$1,$2,$3,$4,$5,0*
20,1,$1+$1,$4,$5,$6,$7,0*
20,1,$1+$1,$6,$7,$8,$9,0*
20,1,$1+$1,$8,$9,$2,$3,0*%
G04 Aperture macros list end*
%TA.AperFunction,SMDPad,CuDef*%
%ADD10RoundRect,0.112000X0.238000X-0.238000X0.238000X0.238000X-0.238000X0.238000X-0.238000X-0.238000X0*%
%TD*%
%TA.AperFunction,SMDPad,CuDef*%
%ADD11RoundRect,0.055000X0.595000X-0.055000X0.595000X0.055000X-0.595000X0.055000X-0.595000X-0.055000X0*%
%TD*%
%TA.AperFunction,SMDPad,CuDef*%
%ADD12RoundRect,0.062500X0.587500X-0.062500X0.587500X0.062500X-0.587500X0.062500X-0.587500X-0.062500X0*%
%TD*%
%TA.AperFunction,ComponentPad*%
%ADD13R,1.700000X1.700000*%
%TD*%
%TA.AperFunction,ComponentPad*%
%ADD14O,1.700000X1.700000*%
%TD*%
%TA.AperFunction,SMDPad,CuDef*%
%ADD15RoundRect,0.237500X-0.237500X0.287500X-0.237500X-0.287500X0.237500X-0.287500X0.237500X0.287500X0*%
%TD*%
%TA.AperFunction,SMDPad,CuDef*%
%ADD16R,1.000000X0.750000*%
%TD*%
%TA.AperFunction,SMDPad,CuDef*%
%ADD17RoundRect,0.135000X-0.185000X0.135000X-0.185000X-0.135000X0.185000X-0.135000X0.185000X0.135000X0*%
%TD*%
%TA.AperFunction,ViaPad*%
%ADD18C,0.700000*%
%TD*%
%TA.AperFunction,ViaPad*%
%ADD19C,0.600000*%
%TD*%
%TA.AperFunction,Conductor*%
%ADD20C,0.300000*%
%TD*%
%TA.AperFunction,Conductor*%
%ADD21C,0.200000*%
%TD*%
G04 APERTURE END LIST*
D10*
%TO.P,P1,A1,GND*%
%TO.N,GND*%
X24037500Y5135001D03*
X24037500Y11985001D03*
D11*
%TO.P,P1,B1,GND*%
X24687500Y5810001D03*
D12*
%TO.P,P1,B2,TX2+*%
%TO.N,unconnected-(P1-TX2+-PadB2)*%
X24687500Y6310001D03*
%TO.P,P1,B3,TX2-*%
%TO.N,unconnected-(P1-TX2--PadB3)*%
X24687500Y6810001D03*
%TO.P,P1,B4,VBUS*%
%TO.N,VBUS*%
X24687500Y7310001D03*
%TO.P,P1,B5,VCONN*%
%TO.N,unconnected-(P1-VCONN-PadB5)*%
X24687500Y7810001D03*
%TO.P,P1,B6*%
%TO.N,N/C*%
X24687500Y8310001D03*
%TO.P,P1,B7*%
X24687500Y8810001D03*
%TO.P,P1,B8,SBU2*%
%TO.N,unconnected-(P1-SBU2-PadB8)*%
X24687500Y9310001D03*
%TO.P,P1,B9,VBUS*%
%TO.N,VBUS*%
X24687500Y9810001D03*
%TO.P,P1,B10,RX1-*%
%TO.N,unconnected-(P1-RX1--PadB10)*%
X24687500Y10310001D03*
%TO.P,P1,B11,RX1+*%
%TO.N,unconnected-(P1-RX1+-PadB11)*%
X24687500Y10810001D03*
D11*
%TO.P,P1,B12,GND*%
%TO.N,GND*%
X24687500Y11310001D03*
%TD*%
D13*
%TO.P,J1,1,Pin_1*%
%TO.N,+3V3*%
X20390000Y14550001D03*
D14*
%TO.P,J1,2,Pin_2*%
%TO.N,/SWDIO*%
X17850000Y14550001D03*
%TO.P,J1,3,Pin_3*%
%TO.N,/SWCLK*%
X15310000Y14550001D03*
%TO.P,J1,4,Pin_4*%
%TO.N,GND*%
X12770000Y14550001D03*
%TD*%
D15*
%TO.P,D1,1,K*%
%TO.N,/LED_K*%
X5310000Y9442501D03*
%TO.P,D1,2,A*%
%TO.N,/LED_A*%
X5310000Y7692501D03*
%TD*%
D16*
%TO.P,SW1,1,1*%
%TO.N,/BTN*%
X8530000Y6710001D03*
X14530000Y6710001D03*
%TO.P,SW1,2,2*%
%TO.N,GND*%
X8530000Y10460001D03*
X14530000Y10460001D03*
%TD*%
D17*
%TO.P,R5,1*%
%TO.N,/BTN*%
X11640000Y5310001D03*
%TO.P,R5,2*%
%TO.N,+3V3*%
X11640000Y4290001D03*
%TD*%
%TO.P,R6,1*%
%TO.N,GND*%
X6480000Y11930001D03*
%TO.P,R6,2*%
%TO.N,/LED_K*%
X6480000Y10910001D03*
%TD*%
D18*
%TO.N,+3V3*%
X15010000Y5100001D03*
%TO.N,GND*%
X22720000Y11890001D03*
X8650000Y15420001D03*
X21510000Y4230001D03*
D19*
X6571974Y9557001D03*
D18*
X1520000Y9200001D03*
X16985000Y6890001D03*
X6834498Y1614499D03*
X6960000Y13040001D03*
%TO.N,VBUS*%
X23590000Y7310001D03*
%TO.N,/LED_A*%
X7200000Y5790001D03*
%TO.N,/BTN*%
X7770000Y5080001D03*
%TD*%
D20*
%TO.N,+3V3*%
X15010000Y5100001D02*
X14200000Y4290001D01*
X14200000Y4290001D02*
X11640000Y4290001D01*
%TO.N,GND*%
X21510000Y4230001D02*
X21510000Y4780001D01*
X24087500Y5517043D02*
X24346479Y5776022D01*
X24087500Y11985001D02*
X22815000Y11985001D01*
X24087500Y5135001D02*
X24087500Y5517043D01*
X21865000Y5135001D02*
X24087500Y5135001D01*
X21510000Y4780001D02*
X21865000Y5135001D01*
X24087500Y11985001D02*
X24087500Y11602959D01*
X22815000Y11985001D02*
X22720000Y11890001D01*
X24087500Y11602959D02*
X24346479Y11343980D01*
%TO.N,VBUS*%
X24687500Y9810001D02*
X25422596Y9810001D01*
X25422596Y9810001D02*
X25687500Y9545097D01*
X25687500Y7574905D02*
X25422596Y7310001D01*
X25687500Y9545097D02*
X25687500Y7574905D01*
X25422596Y7310001D02*
X24687500Y7310001D01*
X24687500Y7310001D02*
X23590000Y7310001D01*
D21*
%TO.N,/LED_A*%
X7200000Y5790001D02*
X5310000Y7680001D01*
%TO.N,/LED_K*%
X5310000Y9740001D02*
X6480000Y10910001D01*
D20*
%TO.N,/BTN*%
X13260000Y5310001D02*
X14530000Y6580001D01*
X14530000Y6710001D02*
X8530000Y6710001D01*
X8000000Y5310001D02*
X11640000Y5310001D01*
X8530000Y5840001D02*
X7770000Y5080001D01*
X11640000Y5310001D02*
X13260000Y5310001D01*
X8530000Y6710001D02*
X8530000Y5840001D01*
X7770000Y5080001D02*
X8000000Y5310001D01*
%TD*%
%TA.AperFunction,Conductor*%
%TO.N,GND*%
G36*
X21930039Y16799816D02*
G01*
X21975794Y16747012D01*
X21987000Y16695501D01*
X21987000Y15468468D01*
X21967315Y15401429D01*
X21914511Y15355674D01*
X21845353Y15345730D01*
X21781797Y15374755D01*
X21744023Y15433533D01*
X21739710Y15455214D01*
X21738285Y15468468D01*
X21734091Y15507484D01*
X21683796Y15642332D01*
X21683795Y15642333D01*
X21683793Y15642337D01*
X21597547Y15757546D01*
X21597544Y15757549D01*
X21482335Y15843795D01*
X21482328Y15843799D01*
X21347482Y15894093D01*
X21347483Y15894093D01*
X21287883Y15900500D01*
X21287881Y15900501D01*
X21287873Y15900501D01*
X21287864Y15900501D01*
X19492129Y15900501D01*
X19492123Y15900500D01*
X19432516Y15894093D01*
X19297671Y15843799D01*
X19297664Y15843795D01*
X19182455Y15757549D01*
X19182452Y15757546D01*
X19096206Y15642337D01*
X19096203Y15642332D01*
X19047189Y15510918D01*
X19005317Y15454985D01*
X18939853Y15430568D01*
X18871580Y15445420D01*
X18843326Y15466571D01*
X18721402Y15588495D01*
X18721395Y15588500D01*
X18527834Y15724034D01*
X18527830Y15724036D01*
X18527828Y15724037D01*
X18313663Y15823904D01*
X18313659Y15823905D01*
X18313655Y15823907D01*
X18085413Y15885063D01*
X18085403Y15885065D01*
X17850001Y15905660D01*
X17849999Y15905660D01*
X17614596Y15885065D01*
X17614586Y15885063D01*
X17386344Y15823907D01*
X17386335Y15823903D01*
X17172171Y15724037D01*
X17172169Y15724036D01*
X16978597Y15588496D01*
X16811505Y15421404D01*
X16681575Y15235843D01*
X16626998Y15192218D01*
X16557500Y15185024D01*
X16495145Y15216547D01*
X16478425Y15235843D01*
X16348494Y15421404D01*
X16181402Y15588495D01*
X16181395Y15588500D01*
X15987834Y15724034D01*
X15987830Y15724036D01*
X15987828Y15724037D01*
X15773663Y15823904D01*
X15773659Y15823905D01*
X15773655Y15823907D01*
X15545413Y15885063D01*
X15545403Y15885065D01*
X15310001Y15905660D01*
X15309999Y15905660D01*
X15074596Y15885065D01*
X15074586Y15885063D01*
X14846344Y15823907D01*
X14846335Y15823903D01*
X14632171Y15724037D01*
X14632169Y15724036D01*
X14438597Y15588496D01*
X14271508Y15421407D01*
X14141269Y15235406D01*
X14086692Y15191782D01*
X14017193Y15184589D01*
X13954839Y15216111D01*
X13938119Y15235407D01*
X13808113Y15421075D01*
X13808108Y15421081D01*
X13641082Y15588107D01*
X13447578Y15723602D01*
X13233492Y15823431D01*
X13233486Y15823434D01*
X13020000Y15880637D01*
X13020000Y14983013D01*
X12962993Y15015926D01*
X12835826Y15050001D01*
X12704174Y15050001D01*
X12577007Y15015926D01*
X12520000Y14983013D01*
X12520000Y15880637D01*
X12519999Y15880637D01*
X12306513Y15823434D01*
X12306507Y15823431D01*
X12092422Y15723602D01*
X12092420Y15723601D01*
X11898926Y15588115D01*
X11898920Y15588110D01*
X11731891Y15421081D01*
X11731886Y15421075D01*
X11596400Y15227581D01*
X11596399Y15227579D01*
X11496570Y15013494D01*
X11496567Y15013488D01*
X11439364Y14800002D01*
X11439364Y14800001D01*
X12336988Y14800001D01*
X12304075Y14742994D01*
X12270000Y14615827D01*
X12270000Y14484175D01*
X12304075Y14357008D01*
X12336988Y14300001D01*
X11439364Y14300001D01*
X11496567Y14086515D01*
X11496570Y14086509D01*
X11596399Y13872423D01*
X11731894Y13678919D01*
X11898917Y13511896D01*
X12092421Y13376401D01*
X12306507Y13276572D01*
X12306516Y13276568D01*
X12520000Y13219367D01*
X12520000Y14116989D01*
X12577007Y14084076D01*
X12704174Y14050001D01*
X12835826Y14050001D01*
X12962993Y14084076D01*
X13020000Y14116989D01*
X13020000Y13219368D01*
X13233483Y13276568D01*
X13233492Y13276572D01*
X13447578Y13376401D01*
X13641082Y13511896D01*
X13808105Y13678919D01*
X13938119Y13864596D01*
X13992696Y13908220D01*
X14062195Y13915413D01*
X14124549Y13883891D01*
X14141269Y13864596D01*
X14271505Y13678600D01*
X14438599Y13511506D01*
X14535384Y13443736D01*
X14632165Y13375969D01*
X14632167Y13375968D01*
X14632170Y13375966D01*
X14846337Y13276098D01*
X15074592Y13214938D01*
X15251034Y13199501D01*
X15309999Y13194342D01*
X15310000Y13194342D01*
X15310001Y13194342D01*
X15368966Y13199501D01*
X15545408Y13214938D01*
X15773663Y13276098D01*
X15987830Y13375966D01*
X16181401Y13511506D01*
X16348495Y13678600D01*
X16478425Y13864159D01*
X16533002Y13907784D01*
X16602500Y13914978D01*
X16664855Y13883455D01*
X16681575Y13864159D01*
X16811281Y13678919D01*
X16811505Y13678600D01*
X16978599Y13511506D01*
X17075384Y13443736D01*
X17172165Y13375969D01*
X17172167Y13375968D01*
X17172170Y13375966D01*
X17386337Y13276098D01*
X17614592Y13214938D01*
X17791034Y13199501D01*
X17849999Y13194342D01*
X17850000Y13194342D01*
X17850001Y13194342D01*
X17908966Y13199501D01*
X18085408Y13214938D01*
X18313663Y13276098D01*
X18527830Y13375966D01*
X18721401Y13511506D01*
X18843329Y13633435D01*
X18904648Y13666917D01*
X18974340Y13661933D01*
X19030274Y13620062D01*
X19047189Y13589084D01*
X19096202Y13457673D01*
X19096206Y13457666D01*
X19182452Y13342457D01*
X19182455Y13342454D01*
X19297664Y13256208D01*
X19297671Y13256204D01*
X19432517Y13205910D01*
X19432516Y13205910D01*
X19439444Y13205166D01*
X19492127Y13199501D01*
X21287872Y13199502D01*
X21347483Y13205910D01*
X21482331Y13256205D01*
X21597546Y13342455D01*
X21683796Y13457670D01*
X21734091Y13592518D01*
X21739711Y13644793D01*
X21766449Y13709340D01*
X21823841Y13749188D01*
X21893666Y13751682D01*
X21953755Y13716030D01*
X21985030Y13653550D01*
X21987000Y13631534D01*
X21987000Y12520439D01*
X22000652Y12469488D01*
X22007479Y12444011D01*
X22007482Y12444006D01*
X22047035Y12375497D01*
X22047039Y12375492D01*
X22047040Y12375490D01*
X22102989Y12319541D01*
X22102991Y12319540D01*
X22102995Y12319537D01*
X22171504Y12279984D01*
X22171511Y12279980D01*
X22247938Y12259501D01*
X22327062Y12259501D01*
X23111638Y12259501D01*
X23178677Y12239816D01*
X23184652Y12235001D01*
X24163500Y12235001D01*
X24230539Y12215316D01*
X24276294Y12162512D01*
X24287500Y12111001D01*
X24287500Y11859001D01*
X24267815Y11791962D01*
X24215011Y11746207D01*
X24163500Y11735001D01*
X23187500Y11735001D01*
X23187500Y11685196D01*
X23190230Y11650504D01*
X23190231Y11650498D01*
X23233368Y11502020D01*
X23233370Y11502015D01*
X23312079Y11368925D01*
X23312086Y11368916D01*
X23421414Y11259588D01*
X23421423Y11259581D01*
X23487470Y11220521D01*
X23535154Y11169452D01*
X23547463Y11128582D01*
X23548209Y11122366D01*
X23552208Y11112226D01*
X23558487Y11042639D01*
X23551646Y11020054D01*
X23551491Y11019476D01*
X23537000Y10909403D01*
X23537000Y10710598D01*
X23551489Y10600533D01*
X23553594Y10592679D01*
X23550314Y10591801D01*
X23556081Y10537928D01*
X23553017Y10527479D01*
X23553595Y10527324D01*
X23551490Y10519472D01*
X23537000Y10409403D01*
X23537000Y10210598D01*
X23551489Y10100533D01*
X23553594Y10092679D01*
X23550314Y10091801D01*
X23556081Y10037928D01*
X23553017Y10027479D01*
X23553595Y10027324D01*
X23551490Y10019472D01*
X23537000Y9909403D01*
X23537000Y9710598D01*
X23551489Y9600533D01*
X23553594Y9592679D01*
X23550314Y9591801D01*
X23556081Y9537928D01*
X23553017Y9527479D01*
X23553595Y9527324D01*
X23551490Y9519472D01*
X23537000Y9409403D01*
X23537000Y9210598D01*
X23551489Y9100533D01*
X23553594Y9092679D01*
X23550314Y9091801D01*
X23556081Y9037928D01*
X23553017Y9027479D01*
X23553595Y9027324D01*
X23551490Y9019472D01*
X23537000Y8909403D01*
X23537000Y8710598D01*
X23551489Y8600533D01*
X23553594Y8592679D01*
X23550314Y8591801D01*
X23556081Y8537928D01*
X23553017Y8527479D01*
X23553595Y8527324D01*
X23551490Y8519472D01*
X23537000Y8409403D01*
X23537000Y8268650D01*
X23517315Y8201611D01*
X23464511Y8155856D01*
X23438782Y8147360D01*
X23325732Y8123330D01*
X23325728Y8123329D01*
X23162408Y8050614D01*
X23017768Y7945526D01*
X22898140Y7812665D01*
X22808750Y7657837D01*
X22808747Y7657831D01*
X22753504Y7487809D01*
X22753503Y7487807D01*
X22734815Y7310001D01*
X22753503Y7132196D01*
X22753504Y7132194D01*
X22808747Y6962172D01*
X22808750Y6962166D01*
X22898141Y6807336D01*
X22939812Y6761055D01*
X23017764Y6674480D01*
X23017767Y6674478D01*
X23017770Y6674475D01*
X23162407Y6569389D01*
X23325733Y6496672D01*
X23438781Y6472643D01*
X23500263Y6439451D01*
X23534039Y6378288D01*
X23537000Y6351354D01*
X23537000Y6210598D01*
X23551489Y6100531D01*
X23553593Y6092682D01*
X23552314Y6092340D01*
X23558881Y6031243D01*
X23552209Y6007779D01*
X23548210Y5997637D01*
X23547463Y5991420D01*
X23519921Y5927208D01*
X23487472Y5899483D01*
X23421424Y5860422D01*
X23421419Y5860418D01*
X23312083Y5751083D01*
X23312079Y5751078D01*
X23233370Y5617988D01*
X23233368Y5617983D01*
X23190231Y5469505D01*
X23190230Y5469499D01*
X23187500Y5434807D01*
X23187500Y5385001D01*
X24163500Y5385001D01*
X24230539Y5365316D01*
X24276294Y5312512D01*
X24287500Y5261001D01*
X24287500Y5009001D01*
X24267815Y4941962D01*
X24215011Y4896207D01*
X24163500Y4885001D01*
X23177674Y4885001D01*
X23137996Y4863335D01*
X23111638Y4860501D01*
X22327062Y4860501D01*
X22247938Y4860501D01*
X22209724Y4850262D01*
X22171509Y4840022D01*
X22171504Y4840019D01*
X22102995Y4800466D01*
X22102987Y4800460D01*
X22047041Y4744514D01*
X22047035Y4744506D01*
X22007482Y4675997D01*
X22007479Y4675992D01*
X21987000Y4599562D01*
X21987000Y424500D01*
X21967315Y357461D01*
X21914511Y311706D01*
X21863000Y300500D01*
X424500Y300500D01*
X357461Y320185D01*
X311706Y372989D01*
X300500Y424500D01*
X300500Y9779186D01*
X4334500Y9779186D01*
X4334500Y9105832D01*
X4334501Y9105814D01*
X4344825Y9004749D01*
X4376420Y8909403D01*
X4399092Y8840985D01*
X4479515Y8710598D01*
X4489661Y8694150D01*
X4528629Y8655182D01*
X4562114Y8593859D01*
X4557130Y8524167D01*
X4528629Y8479820D01*
X4489661Y8440853D01*
X4399093Y8294020D01*
X4399092Y8294017D01*
X4344826Y8130254D01*
X4344826Y8130253D01*
X4344825Y8130253D01*
X4334500Y8029186D01*
X4334500Y7355832D01*
X4334501Y7355814D01*
X4344825Y7254749D01*
X4365458Y7192485D01*
X4399092Y7090985D01*
X4489660Y6944151D01*
X4611650Y6822161D01*
X4758484Y6731593D01*
X4922247Y6677327D01*
X5023323Y6667001D01*
X5422401Y6667002D01*
X5489440Y6647318D01*
X5510082Y6630683D01*
X6313066Y5827699D01*
X6346551Y5766376D01*
X6348706Y5752980D01*
X6363503Y5612197D01*
X6363504Y5612194D01*
X6418747Y5442172D01*
X6418750Y5442166D01*
X6508141Y5287336D01*
X6534075Y5258534D01*
X6627764Y5154480D01*
X6627767Y5154478D01*
X6627770Y5154475D01*
X6772407Y5049389D01*
X6859781Y5010488D01*
X6913017Y4965238D01*
X6932664Y4910177D01*
X6933502Y4902203D01*
X6933504Y4902194D01*
X6988747Y4732172D01*
X6988750Y4732166D01*
X7078141Y4577336D01*
X7119812Y4531055D01*
X7197764Y4444480D01*
X7197767Y4444478D01*
X7197770Y4444475D01*
X7342407Y4339389D01*
X7505733Y4266672D01*
X7680609Y4229501D01*
X7680610Y4229501D01*
X7859389Y4229501D01*
X7859391Y4229501D01*
X8034267Y4266672D01*
X8197593Y4339389D01*
X8342230Y4444475D01*
X8461859Y4577336D01*
X8461862Y4577341D01*
X8473503Y4597502D01*
X8524070Y4645717D01*
X8580889Y4659501D01*
X10698762Y4659501D01*
X10765801Y4639816D01*
X10811556Y4587012D01*
X10822380Y4525771D01*
X10819500Y4489186D01*
X10819500Y4090832D01*
X10819501Y4090810D01*
X10822335Y4054796D01*
X10867129Y3900613D01*
X10867131Y3900608D01*
X10948863Y3762406D01*
X10948869Y3762398D01*
X11062396Y3648871D01*
X11062400Y3648868D01*
X11062402Y3648866D01*
X11200607Y3567132D01*
X11241268Y3555319D01*
X11354791Y3522337D01*
X11354794Y3522337D01*
X11354796Y3522336D01*
X11390819Y3519501D01*
X11889180Y3519502D01*
X11925204Y3522336D01*
X12079393Y3567132D01*
X12172564Y3622234D01*
X12235685Y3639501D01*
X14264071Y3639501D01*
X14348615Y3656319D01*
X14389744Y3664500D01*
X14508127Y3713536D01*
X14614669Y3784724D01*
X15048092Y4218148D01*
X15109413Y4251631D01*
X15109477Y4251645D01*
X15274267Y4286672D01*
X15437593Y4359389D01*
X15582230Y4464475D01*
X15701859Y4597336D01*
X15791250Y4752166D01*
X15846497Y4922198D01*
X15865185Y5100001D01*
X15846497Y5277804D01*
X15818873Y5362820D01*
X15791252Y5447831D01*
X15791249Y5447837D01*
X15701859Y5602666D01*
X15655003Y5654705D01*
X15582235Y5735523D01*
X15582226Y5735530D01*
X15440586Y5838440D01*
X15397920Y5893770D01*
X15391942Y5963383D01*
X15414205Y6013067D01*
X15473796Y6092670D01*
X15524091Y6227518D01*
X15530500Y6287128D01*
X15530499Y7132873D01*
X15524091Y7192484D01*
X15473796Y7327332D01*
X15473795Y7327333D01*
X15473793Y7327337D01*
X15387547Y7442546D01*
X15387544Y7442549D01*
X15272335Y7528795D01*
X15272328Y7528799D01*
X15137482Y7579093D01*
X15137483Y7579093D01*
X15077883Y7585500D01*
X15077881Y7585501D01*
X15077873Y7585501D01*
X15077864Y7585501D01*
X13982129Y7585501D01*
X13982123Y7585500D01*
X13922516Y7579093D01*
X13787671Y7528799D01*
X13787664Y7528795D01*
X13672457Y7442550D01*
X13672449Y7442543D01*
X13648232Y7410191D01*
X13592299Y7368319D01*
X13548965Y7360501D01*
X9511035Y7360501D01*
X9443996Y7380186D01*
X9411768Y7410191D01*
X9387550Y7442543D01*
X9387547Y7442546D01*
X9387546Y7442547D01*
X9327087Y7487807D01*
X9272335Y7528795D01*
X9272328Y7528799D01*
X9137482Y7579093D01*
X9137483Y7579093D01*
X9077883Y7585500D01*
X9077881Y7585501D01*
X9077873Y7585501D01*
X9077864Y7585501D01*
X7982129Y7585501D01*
X7982123Y7585500D01*
X7922516Y7579093D01*
X7787671Y7528799D01*
X7787664Y7528795D01*
X7672455Y7442549D01*
X7672452Y7442546D01*
X7586206Y7327337D01*
X7586202Y7327330D01*
X7535908Y7192484D01*
X7529501Y7132885D01*
X7529501Y7132878D01*
X7529500Y7132866D01*
X7529500Y6742592D01*
X7509815Y6675553D01*
X7457011Y6629798D01*
X7387853Y6619854D01*
X7379720Y6621301D01*
X7379684Y6621309D01*
X7289391Y6640501D01*
X7289387Y6640501D01*
X7250098Y6640501D01*
X7183059Y6660186D01*
X7162417Y6676820D01*
X6321818Y7517419D01*
X6288333Y7578742D01*
X6285499Y7605100D01*
X6285499Y8029171D01*
X6285498Y8029188D01*
X6275174Y8130254D01*
X6220908Y8294017D01*
X6130340Y8440851D01*
X6091371Y8479820D01*
X6057886Y8541143D01*
X6062870Y8610835D01*
X6091371Y8655182D01*
X6130340Y8694151D01*
X6220908Y8840985D01*
X6275174Y9004748D01*
X6285500Y9105824D01*
X6285499Y9779177D01*
X6283415Y9799577D01*
X6296184Y9868269D01*
X6319089Y9899857D01*
X6456390Y10037157D01*
X7530000Y10037157D01*
X7536401Y9977629D01*
X7536403Y9977622D01*
X7586645Y9842915D01*
X7586649Y9842908D01*
X7672809Y9727814D01*
X7672812Y9727811D01*
X7787906Y9641651D01*
X7787913Y9641647D01*
X7922620Y9591405D01*
X7922627Y9591403D01*
X7982155Y9585002D01*
X7982172Y9585001D01*
X8280000Y9585001D01*
X8780000Y9585001D01*
X9077828Y9585001D01*
X9077844Y9585002D01*
X9137372Y9591403D01*
X9137379Y9591405D01*
X9272086Y9641647D01*
X9272093Y9641651D01*
X9387187Y9727811D01*
X9387190Y9727814D01*
X9473350Y9842908D01*
X9473354Y9842915D01*
X9523596Y9977622D01*
X9523598Y9977629D01*
X9529999Y10037157D01*
X13530000Y10037157D01*
X13536401Y9977629D01*
X13536403Y9977622D01*
X13586645Y9842915D01*
X13586649Y9842908D01*
X13672809Y9727814D01*
X13672812Y9727811D01*
X13787906Y9641651D01*
X13787913Y9641647D01*
X13922620Y9591405D01*
X13922627Y9591403D01*
X13982155Y9585002D01*
X13982172Y9585001D01*
X14280000Y9585001D01*
X14780000Y9585001D01*
X15077828Y9585001D01*
X15077844Y9585002D01*
X15137372Y9591403D01*
X15137379Y9591405D01*
X15272086Y9641647D01*
X15272093Y9641651D01*
X15387187Y9727811D01*
X15387190Y9727814D01*
X15473350Y9842908D01*
X15473354Y9842915D01*
X15523596Y9977622D01*
X15523598Y9977629D01*
X15529999Y10037157D01*
X15530000Y10037174D01*
X15530000Y10210001D01*
X14780000Y10210001D01*
X14780000Y9585001D01*
X14280000Y9585001D01*
X14280000Y10210001D01*
X13530000Y10210001D01*
X13530000Y10037157D01*
X9529999Y10037157D01*
X9530000Y10037174D01*
X9530000Y10210001D01*
X8780000Y10210001D01*
X8780000Y9585001D01*
X8280000Y9585001D01*
X8280000Y10210001D01*
X7530000Y10210001D01*
X7530000Y10037157D01*
X6456390Y10037157D01*
X6522416Y10103183D01*
X6583739Y10136668D01*
X6610097Y10139502D01*
X6729168Y10139502D01*
X6729180Y10139502D01*
X6765204Y10142336D01*
X6919393Y10187132D01*
X7057598Y10268866D01*
X7171135Y10382403D01*
X7252869Y10520608D01*
X7297665Y10674797D01*
X7297665Y10674804D01*
X7299396Y10680760D01*
X7337002Y10739646D01*
X7400475Y10768853D01*
X7469661Y10759107D01*
X7506154Y10733847D01*
X7530000Y10710001D01*
X8280000Y10710001D01*
X8780000Y10710001D01*
X9530000Y10710001D01*
X9530000Y10882829D01*
X9529999Y10882846D01*
X13530000Y10882846D01*
X13530000Y10710001D01*
X14280000Y10710001D01*
X14780000Y10710001D01*
X15530000Y10710001D01*
X15530000Y10882829D01*
X15529999Y10882846D01*
X15523598Y10942374D01*
X15523596Y10942381D01*
X15473354Y11077088D01*
X15473350Y11077095D01*
X15387190Y11192189D01*
X15387187Y11192192D01*
X15272093Y11278352D01*
X15272086Y11278356D01*
X15137379Y11328598D01*
X15137372Y11328600D01*
X15077844Y11335001D01*
X14780000Y11335001D01*
X14780000Y10710001D01*
X14280000Y10710001D01*
X14280000Y11335001D01*
X13982155Y11335001D01*
X13922627Y11328600D01*
X13922620Y11328598D01*
X13787913Y11278356D01*
X13787906Y11278352D01*
X13672812Y11192192D01*
X13672809Y11192189D01*
X13586649Y11077095D01*
X13586645Y11077088D01*
X13536403Y10942381D01*
X13536401Y10942374D01*
X13530000Y10882846D01*
X9529999Y10882846D01*
X9523598Y10942374D01*
X9523596Y10942381D01*
X9473354Y11077088D01*
X9473350Y11077095D01*
X9387190Y11192189D01*
X9387187Y11192192D01*
X9272093Y11278352D01*
X9272086Y11278356D01*
X9137379Y11328598D01*
X9137372Y11328600D01*
X9077844Y11335001D01*
X8780000Y11335001D01*
X8780000Y10710001D01*
X8280000Y10710001D01*
X8280000Y11335001D01*
X7982155Y11335001D01*
X7922627Y11328600D01*
X7922620Y11328598D01*
X7787913Y11278356D01*
X7787906Y11278352D01*
X7672812Y11192192D01*
X7672809Y11192189D01*
X7586649Y11077095D01*
X7586645Y11077088D01*
X7540681Y10953851D01*
X7498810Y10897917D01*
X7433345Y10873500D01*
X7365072Y10888352D01*
X7315667Y10937757D01*
X7300499Y10997184D01*
X7300499Y11109171D01*
X7300498Y11109193D01*
X7297665Y11145202D01*
X7297665Y11145205D01*
X7252869Y11299394D01*
X7218581Y11357372D01*
X7201398Y11425096D01*
X7218582Y11483615D01*
X7252404Y11540805D01*
X7252405Y11540807D01*
X7292844Y11680001D01*
X6740409Y11680001D01*
X6730682Y11680383D01*
X6729182Y11680501D01*
X6230831Y11680501D01*
X6230806Y11680500D01*
X6229332Y11680383D01*
X6219607Y11680001D01*
X5667156Y11680001D01*
X5707594Y11540808D01*
X5741419Y11483613D01*
X5758601Y11415889D01*
X5741419Y11357373D01*
X5707130Y11299394D01*
X5707129Y11299390D01*
X5662335Y11145210D01*
X5662334Y11145204D01*
X5659500Y11109190D01*
X5659500Y10990099D01*
X5639815Y10923060D01*
X5623181Y10902418D01*
X5225082Y10504320D01*
X5163759Y10470835D01*
X5137402Y10468001D01*
X5023331Y10468001D01*
X5023312Y10468000D01*
X4922247Y10457676D01*
X4758484Y10403409D01*
X4758481Y10403408D01*
X4611648Y10312840D01*
X4489661Y10190853D01*
X4399093Y10044020D01*
X4399091Y10044015D01*
X4377093Y9977629D01*
X4344826Y9880254D01*
X4344826Y9880253D01*
X4344825Y9880253D01*
X4334500Y9779186D01*
X300500Y9779186D01*
X300500Y12180001D01*
X5667156Y12180001D01*
X6230000Y12180001D01*
X6730000Y12180001D01*
X7292844Y12180001D01*
X7252404Y12319196D01*
X7170738Y12457287D01*
X7170731Y12457296D01*
X7057294Y12570733D01*
X7057285Y12570740D01*
X6919191Y12652408D01*
X6919188Y12652409D01*
X6765130Y12697167D01*
X6730000Y12699933D01*
X6730000Y12180001D01*
X6230000Y12180001D01*
X6230000Y12699933D01*
X6229999Y12699933D01*
X6194869Y12697167D01*
X6194868Y12697167D01*
X6040811Y12652409D01*
X6040808Y12652408D01*
X5902714Y12570740D01*
X5902705Y12570733D01*
X5789268Y12457296D01*
X5789261Y12457287D01*
X5707595Y12319196D01*
X5667156Y12180001D01*
X300500Y12180001D01*
X300500Y16695501D01*
X320185Y16762540D01*
X372989Y16808295D01*
X424500Y16819501D01*
X21863000Y16819501D01*
X21930039Y16799816D01*
G37*
%TD.AperFunction*%
%TD*%
M02*
